<?xml version="1.0" encoding="UTF-8"?><svg xmlns="http://www.w3.org/2000/svg" viewBox="0 0 1104.52 911.38"><g id="panama"><path d="M931.82,655.51c1.51-2.94,9.2-1.53,12.75.2,6.74,9.89,18.46,3.51,44.62,24.63-12.74-10.29,31.3,32.99,22.94,26.55-1.49,2.9-3.59,5.41-3.49,7.66-.17-3.86,16.49,28.1,19.15,30.76l-10.42,12.01c-1.74,2,.3,6.14-.57,8.02-1.39,2.98-4.01,3.32-6.46,4.1-2.34,2.58-5.37,1.76-8.07-.21-2.55-1.9-4.75-4.74-9.57-4.81-.95,11.28-4.78,20.25-9.16,30.25-11.81-7.3-16.17-18.36-23.71-28.56-5.66-7.66-12.89-14.88-10.4-24.55,19.87,12.39,4.25-19.72,19.18-16.09,1.86-3.42,1.86-15.32-.46-7.71-5.73,1.89-11.52.55-17.07-2.08.28,2.8,1.44,7.73-.9,7.27-8.09-1.59-4.56-11.24-8.3-14.08l-23.79-18.08c-6.5-4.94-14.55-6.01-21.8-6.75l.06-2.07c-3.24-2.53-9.05-2.04-12.89-.28,2.13.77,2.09,1.67,0,2.69,1.27-.04-18.69,8.11-20.93,14.25-1.17,3.21.6,8.12.37,12.18-9.58,5.6-19.57,17.62-30.78,20.6-6.61,1.75-11.78-.55-13.89,6.28-1.94,6.27,1.44,8.75,6.17,13.02,9.63,8.69,18.6,20.36,26.26,30.22-7.34,15.01-22.7-3.58-26.43,16.48-5.36,1.7-9.8,1.12-13.63,3.41-6.38,2.62-12.1,2.59-17.16-.11-1.28-.39-3.22-.9-3.61-2.04-.59-1.68.23-3.77.7-5.62,2.98-11.8-6.18-17.92-11.38-26.21-1.65-1.36-3.35-.49-5.11,2.61.32,2-2.75,4.18-2.55,6.78-.96,1.71-1.84,3.02-2.44,2.9-22.24-4.43-28.45-11.8-34.58-32.75-7.66-1.63-14.7-4.42-21.14-8.36-3.24-.2-6.72-.6-9.31-2.73-.64-.53-.46-2.27-1.16-3.22-.75-1.03-2.75-1.51-4.82-.93-18.58,5.22-14.95-6.05-33.34,3.71-.92,1.25-1.73,2.18-2.18,2.03-14.71-4.95-10.28-14.13,1.61-20.56-9.67-9.34-7.76-18.78,2.27-26.47-20.39-8.4-12.62-58.94,12.67-39.27l4.88-.32c.99,4.06,8.29,4.36,10.81,8.44-.82,17.97,10.94,31.57,27.96,32.55q5.28,2.14,0,0c1.83-4.36,7.79-1.66,11.6-2.54-.63-3.86,1.31-3.77,5.84.26,5.53,7.53,12.18,8.73,21.41,10.41,29.64,5.38,40.03-20.41,59.06-21.41,11.93-.63,20.9-8.1,30.36-14.2,7.91-5.1,16.46-8.15,20.6-19.85,10.3,1.93,24.67,6.26,35.11,4.02,1.95,2.84,1.63,7.29,3.33,8.1,1.87.88,13.72,3.14,21.77-.48Z" style="fill:#ed3829;"/></g><g id="costa-rica"><path d="M508.79,547.66c3.58-1.23,7.74-1.66,7.3,2.63h2.43l5.23,4.13c5.56,1.1,8.68,3.08,9.37,5.91,6.08-1.85,10.97-5.82,14.68-11.89,14.92.67,27.93,6.45,39.02,17.32l14.15,2.57c3.44-3.76,7.35-6.38,11.73-7.85,11.15,5.11,2.58,20.8,17.64,33.54,2.54,4.24,4.95,10.13,9.34,14.88l31.47,34.1c3.66,3.96,11.35,1.21,12.81,7.21-.5,1.72-1.06,3.21-2.1,4.02-5.09,3.93-10.77-7.64-14.62-4.67-8.29,6.39-7.14,13.45-6.82,22.04.25,6.74-.11,11.41,8.43,13.58,13.43,3.41-5.04,8.96-6.31,17.64-.75,5.11,3.44,8.27,9.9,12.91-5.89,5.63-11.64,7.84-15.79,13.03,1.14,3.71,5.08,4.8,8.05,6.04-.26,1.45-.41,4.41-2.42,5.23-4.91-4.54-11.96-6.84-16.08-11.82,1.53-5.46,3.06-12.5-2.14-15.58-3.73-2.21-7.78-2.82-8.58-6.63-3.92-2.33-9.3-1.08-7.64,2.81-2.22,3.14,16.14,9.84,8.78,18.52.81-.96-29.3-4.35-26.18-16.77,1.71-6.81,10.45-10.35,8.09-19.51-3.4-13.25-43.03-37.41-52.67-37.73-5.67-.19-15.94-3.41-16.36-9.61-.36-5.35,1.76-9.77-1.22-14.89-2.06-3.55-8.69-3.89-12.67-5.81-5.61-1.32-7.16-.21-4.65,3.35.65,2.57,1.76,4.94,2.11,8.73-5.92,3.29-9.5,8.13-12.26,14.03-18.03-28.01-27.4-14.12-34.16-22.88l-9.71-12.58c-18.34-4.49-4.09-24.8,4.6-33.59,3.9-4.02,4.87-7.46,2.91-10.31-1.75,2.99-4.98.85-5.63-2.26-9.63,9.09-16.2-12.84-4.38-6.98,5.25-.64,7.53-3.03,9.73-7.75-2.17-.73-2.2-1.54-.09-2.44-5.01-4.78-3.56-9.07,3.36-9.7,5.92-6,20.56-1.58,21.34,7.03Z" style="fill:#f68a28;"/></g><g id="nicaragua"><path d="M637.74,297.5c-1.62,2.94-5.05,5.18-8.53,6.86l11.16,24.32c1.22,4.5,2.66,11.45-3.02,8.22-1.86,1.03-3.56,1.55-3.36,3.34.32,2.91,2.93,5.42,3.06,8.01.33,6.89-9.48,9.94-9.72,16.1-.31,8.21-7.74,13.73-9.12,18.83-1.26,4.67,5.74,12.49-.22,18.51-1.03,3.76-2.19,19.46.3,14.77.69-2.12,1.5-2.09,2.43,0,0,6.35,3.25,14.48,1.5,20.89-15.19,1.81-1.73,5.04-6.28,17.82-2.89-.81-8.65-1.54-9.53,3.29-.71,3.89,2.19,8.41,3.78,11.32,1.76,5.42,1.23,9.64-1.6,12.65l-4.84,17.37c5.72,2.05,14.61,10.72,10.1,16.07-6.38,7.57-14.16,13.2-13.57,23.46.37,6.49,6.53,18.43,12.43,21.13.96,5.46-3.95,7.02-7.01,10.23-4.85,5.07-8.45.49-14.33.32-21.92-.66-3.08-11.68-42.41-18.19-5.79,4.53-9.14,11.04-15.83,7.49-2.99-2.48-1.25-4.21,5.24-5.19.84-15.24-15.73-34.23-27.04-45.27-7.86-7.67-34.07-33.07-37.62-14.38-.79,4.17-1.21,12.42.55,16.25,7.02,3.51,16.5,21.46,13.19,28.89-.77,3.34-1.81,6.63-3.36,9.7-4,4.92-8.4,3.01-13.22-5.73l-33.23-28.18-1.97-7.18c-7.34-9.28-10.28-23.17-19.86-31.29l-24.91-21.12c-5.95-5.05-12.19-8.37-16.19-15.94-2.32-4.4-9.35-5.35-13.1-8.84-3.97-3.7.82-6.87,3.94-9.5,5.67-4.78,7.77,9.29,15.7,8.49,1.79-.18,3.71-2.02,4.04-4.5.29-2.16.96-2.15,1.98-.12,6.86.91,13.25.64,19.19-.8-5.92-4.77-3.73-14.79,4.59-13.98,1.04-5.1,2.76-7.48,5.19-7.14,1.29-6.55,4.68-6.2,7.05-.05,1.25-2.34,1.26-5.68.04-10.04-11.81-1.83-13.5-27.15,2-27,4.68.04,6.04,2.41,5.29,7.08,3.07,2.59,7.23,2.76,12.48.5.29-6.57,7.09-18.48,14.37-14.09l10.2.5c3.45-1.74,7.12-1.02,11.01,2.16,10.85-10.57,22.4-19.66,34.64-27.26,11.36-36.07,27.02-42.61,46.99-19.6l15.23-7.14c13.06-.21,25.14-3.52,36.23-9.92,5.11-11.29,23.46-14.88,25.97-2.1Z" style="fill:#0f756f;"/></g><g id="honduras"><path d="M588.63,271.51l10.84,4.4c.24-1.84,16.77,6.41,16.16-.35,1.68-1.72,3.86-2.36,5.08-.19,2.39,1.1,4.83,2.04,7.32,2.82,2.54,3.58,20.83,20.09,9.71,19.32-3.58-2.91-8.26-2.39-13.02-2.97-5.98-.73-6.08,7.19-11.23,9.64l-17.51,8.33c-13.66-.56-25.84,1.57-34.92,10.62-7.8-4.91-13.37-12.15-18.46-14.81-10.68-5.57-13.54,8.28-16.73,13.12-3.52,5.34-8.13,11.51-6.09,18.5-9.85,1.32-14.49,4.61-19.84,11.98-5.35,7.38-16.82,9.36-19.81,19.24-6.35-3.31-8.62-6.66-12.45-9.81l-10.2-.5c-6.07,3.86-6.92,12.06-14.37,14.09-5.24,2.34-9.4,2.17-12.48-.5-2.77-1.03-5.09-3.53-7.98-1.76-9.43,5.8,1.03,15.21.69,21.68,1.21,3.95,1.19,7.3-.04,10.04-2.09-.02-4.87.53-7.05.05-2.43-.19-4.16,2.19-5.19,7.14-3.12,4.09-2.52,9.52-4.59,13.98-5.9,1.56-12.29,1.83-19.19.8l-1.98.12c1.74-14-19.64-9.48-9.38-27.11-4.8-1.16-6.44,1.17-8.75,1.66-2.99,2.26-5.95.33-8.54-1.94l-2.65-2.41c4.26-3.04-1.32-9.32-.41-13.63,1.1-5.2,7.21-7.95,3.47-12.74-8.34-10.64-13.56,2.2-20.87-7.04-7.86-9.95-13.14,5.42-22.46,4.57-3.1-.28-4.01-4.75-7.07-6.58l-25.94-15.52c-3.46-2.07-3.17-8.72-6.86-10.16l-17.73-6.91c-.7-9.18,11.22-7.03,11.63-13.65.52-8.2-7.06-11.54-4.33-20.9,3.09-10.57,21.79-6.82,40.17-29.96,12.75-16.06,23.94-9.96,23.14-20.37,1.42.83,3.78,5.42,6.51,3.02,6.69-5.89,18.66-16.81,28.56-11.64,5.43,2.84,10.62,6.41,16.07,6.06,4.09.68,8.09.74,11.98.19,5.33,1.24,13.04,5.47,18.94,3.86,30.88-8.41,31.76,4.42,44.34-6.47q6.27,2.2,0,0c3.79-3.28,8.65-1.35,14.01-3.24,4.02-1.41,5.13-7.08,9.46-6.78,6.92.47,20.33,16.9,52.82,1.99,8.27-.73,18.19,7.73,24.17,12.88,20.33-6.15,26.07-1.03,38.8,16.65-7.28,1.56-10.18-3.25-15.75.34,5.95,2.86,6.84,7.28,10,10.81Z" style="fill:#ffcb21;"/><path d="M628.01,275.36h-7.3l-5.08.19c-.36-3.97,10.02-4.6,12.38-.19Z" style="fill:#e5e7ed;"/></g><g id="el-salvador"><path d="M355.97,396.71c-1.24.57-4.2-.45-5.22,1.39-.88,1.57,2.69,4.76,2.07,6.97-2.7,9.5-16.41,8.39-24.06,6.74l-7.42-.43c-17.24,5.17-8.71-13.99-29.78-2.57-9.91-4.15-18.25-13.2-28.27-16.31-11.57-3.6-24.27-4.4-36.2-5.38-6.34-9.32-8.6-3.12-19.36-16.46-2.08-4.18-3.12-6.27-3.12-6.27,10.19-10.6,21.85-19.65,34.99-27.15-1.52-10.34,11.46-14.85,18.51-8.51,6.69-7.17,25.06,3.42,26.99,12.84,11.97,5.83,22.46,13.08,31.46,21.73,11.32-9.47,20.38-9.9,27.18-1.3,15.91-3.95,27.45,7.64,16.54,21.93,3.8,9.19,2.37,13.45-4.3,12.79Z" style="fill:#a41e22;"/></g><g id="guatemala"><path d="M272.92,134.25l-5.44,98.67c7.31,1.39,13.19-.56,18.73.17,7.34.96,11.76,9.97,18.34,12.58,5.15-.15,5.89-12.39,1.46-15.04l22.7,13.21c4.83,3.36,5.3,6.41,1.39,9.16-13.08,7.03-24.86,16.41-35.34,28.15l-24.17,13.19-.72,5.54c8.95,15.13,4.11,24.14-11.78,28.84-4.02,1.94-8.52,1.89-13.78,3.55-.69,3.93.87,6.08,1.62,10.49-9.96-3.38-12.3,5.85-17.81,8.84-9.07,4.93-18.83,8.93-20.4,19.06-4.19-.05-9.53-1.19-13.34-4.13-8.69-6.71-17.36-5.1-26.19-6.03-5.3,1.41-10.99,1.38-17.05-.09-7.73-1.8-17.53-1.55-25.45-6.67-16.76-10.83-33.93-23.05-48.98-35.91,2.45-5.14,7.29-8.13,6.69-11.79-.5-2.99-3.42-5.85-3.79-9.23-.57-5.14,4.07-8.86,7.49-12.37l-7.47-16.31,29.61-46.22c26.5-.8,53.44-1.64,80.84-2.51-2.18-.81-2.18-1.62,0-2.43-2.09-.79-2.02-1.6.11-2.43.23-5.14,3.18-8.92,6.79-15.36-8.04-2.85-13.99-4.25-18.71-8.97.71-3.61.54-6.99-.51-10.13-5.52-3.36-13.73-11.38-20.75-14.66-8.06-3.77-12.71-10.27-17.53-16.36-.16-1.76-1.09-2.92-2.77-3.49l-2.58-3.19c8.88-1.07,17.85-.84,26.86-.55.76.02,1.61-.43,2.34-.27.93-11.39,1.77-22.36,2.5-32.91l104.17.24c1.49,7.84,2.46,16.29,2.94,25.37Z" style="fill:#f0582c;"/></g></svg>